<?xml version="1.0" encoding="utf-8" standalone="no"?>
<!DOCTYPE svg PUBLIC "-//W3C//DTD SVG 1.1//EN"
  "http://www.w3.org/Graphics/SVG/1.1/DTD/svg11.dtd">
<svg xmlns:xlink="http://www.w3.org/1999/xlink" width="470.551181pt" height="297.637795pt" viewBox="0 0 470.551181 297.637795" xmlns="http://www.w3.org/2000/svg" version="1.1">
 <metadata>
  <rdf:RDF xmlns:dc="http://purl.org/dc/elements/1.1/" xmlns:cc="http://creativecommons.org/ns#" xmlns:rdf="http://www.w3.org/1999/02/22-rdf-syntax-ns#">
   <cc:Work>
    <dc:type rdf:resource="http://purl.org/dc/dcmitype/StillImage"/>
    <dc:date>2026-09-25T10:41:48.827299</dc:date>
    <dc:format>image/svg+xml</dc:format>
    <dc:creator>
     <cc:Agent>
      <dc:title>Matplotlib v3.11.1, https://matplotlib.org/</dc:title>
     </cc:Agent>
    </dc:creator>
   </cc:Work>
  </rdf:RDF>
 </metadata>
 <defs>
  <style type="text/css">*{stroke-linejoin: round; stroke-linecap: butt}</style>
 </defs>
 <g id="figure_1">
  <g id="patch_1">
   <path d="M 0 297.637795 
L 470.551181 297.637795 
L 470.551181 0 
L 0 0 
z
" style="fill: #ffffff"/>
  </g>
  <g id="axes_1">
   <g id="patch_2">
    <path d="M 35.839595 243.534135 
L 226.367146 243.534135 
L 226.367146 28.299453 
L 35.839595 28.299453 
z
" style="fill: #ffffff"/>
   </g>
   <g id="patch_3">
    <path d="M 36.877122 243.534135 
L 38.574892 243.534135 
L 38.574892 38.548723 
L 36.877122 38.548723 
z
" clip-path="url(#p42f83dc0f4)" style="fill: #b66a4d"/>
   </g>
   <g id="patch_4">
    <path d="M 38.763533 243.534135 
L 40.461303 243.534135 
L 40.461303 61.455198 
L 38.763533 61.455198 
z
" clip-path="url(#p42f83dc0f4)" style="fill: #b66a4d"/>
   </g>
   <g id="patch_5">
    <path d="M 40.649945 243.534135 
L 42.347715 243.534135 
L 42.347715 81.778731 
L 40.649945 81.778731 
z
" clip-path="url(#p42f83dc0f4)" style="fill: #b66a4d"/>
   </g>
   <g id="patch_6">
    <path d="M 42.536356 243.534135 
L 44.234126 243.534135 
L 44.234126 84.048583 
L 42.536356 84.048583 
z
" clip-path="url(#p42f83dc0f4)" style="fill: #b66a4d"/>
   </g>
   <g id="patch_7">
    <path d="M 44.422767 243.534135 
L 46.120538 243.534135 
L 46.120538 91.606024 
L 44.422767 91.606024 
z
" clip-path="url(#p42f83dc0f4)" style="fill: #b66a4d"/>
   </g>
   <g id="patch_8">
    <path d="M 46.309179 243.534135 
L 48.006949 243.534135 
L 48.006949 96.269744 
L 46.309179 96.269744 
z
" clip-path="url(#p42f83dc0f4)" style="fill: #b66a4d"/>
   </g>
   <g id="patch_9">
    <path d="M 48.19559 243.534135 
L 49.89336 243.534135 
L 49.89336 99.972847 
L 48.19559 99.972847 
z
" clip-path="url(#p42f83dc0f4)" style="fill: #b66a4d"/>
   </g>
   <g id="patch_10">
    <path d="M 50.082001 243.534135 
L 51.779772 243.534135 
L 51.779772 100.184333 
L 50.082001 100.184333 
z
" clip-path="url(#p42f83dc0f4)" style="fill: #b66a4d"/>
   </g>
   <g id="patch_11">
    <path d="M 51.968413 243.534135 
L 53.666183 243.534135 
L 53.666183 104.833775 
L 51.968413 104.833775 
z
" clip-path="url(#p42f83dc0f4)" style="fill: #b66a4d"/>
   </g>
   <g id="patch_12">
    <path d="M 53.854824 243.534135 
L 55.552594 243.534135 
L 55.552594 115.058765 
L 53.854824 115.058765 
z
" clip-path="url(#p42f83dc0f4)" style="fill: #b66a4d"/>
   </g>
   <g id="patch_13">
    <path d="M 55.741236 243.534135 
L 57.439006 243.534135 
L 57.439006 137.884549 
L 55.741236 137.884549 
z
" clip-path="url(#p42f83dc0f4)" style="fill: #b66a4d"/>
   </g>
   <g id="patch_14">
    <path d="M 57.627647 243.534135 
L 59.325417 243.534135 
L 59.325417 139.889293 
L 57.627647 139.889293 
z
" clip-path="url(#p42f83dc0f4)" style="fill: #b66a4d"/>
   </g>
   <g id="patch_15">
    <path d="M 59.514058 243.534135 
L 61.211829 243.534135 
L 61.211829 164.263907 
L 59.514058 164.263907 
z
" clip-path="url(#p42f83dc0f4)" style="fill: #b66a4d"/>
   </g>
   <g id="patch_16">
    <path d="M 61.40047 243.534135 
L 63.09824 243.534135 
L 63.09824 172.154604 
L 61.40047 172.154604 
z
" clip-path="url(#p42f83dc0f4)" style="fill: #b66a4d"/>
   </g>
   <g id="patch_17">
    <path d="M 63.286881 243.534135 
L 64.984651 243.534135 
L 64.984651 189.772453 
L 63.286881 189.772453 
z
" clip-path="url(#p42f83dc0f4)" style="fill: #b66a4d"/>
   </g>
   <g id="patch_18">
    <path d="M 65.173293 243.534135 
L 66.871063 243.534135 
L 66.871063 201.3966 
L 65.173293 201.3966 
z
" clip-path="url(#p42f83dc0f4)" style="fill: #b66a4d"/>
   </g>
   <g id="patch_19">
    <path d="M 67.059704 243.534135 
L 68.757474 243.534135 
L 68.757474 208.661692 
L 67.059704 208.661692 
z
" clip-path="url(#p42f83dc0f4)" style="fill: #b66a4d"/>
   </g>
   <g id="patch_20">
    <path d="M 68.946115 243.534135 
L 70.643886 243.534135 
L 70.643886 213.626172 
L 68.946115 213.626172 
z
" clip-path="url(#p42f83dc0f4)" style="fill: #b66a4d"/>
   </g>
   <g id="patch_21">
    <path d="M 70.832527 243.534135 
L 72.530297 243.534135 
L 72.530297 215.442445 
L 70.832527 215.442445 
z
" clip-path="url(#p42f83dc0f4)" style="fill: #b66a4d"/>
   </g>
   <g id="patch_22">
    <path d="M 72.718938 243.534135 
L 74.416708 243.534135 
L 74.416708 228.842504 
L 72.718938 228.842504 
z
" clip-path="url(#p42f83dc0f4)" style="fill: #b66a4d"/>
   </g>
   <g id="patch_23">
    <path d="M 74.605349 243.534135 
L 76.30312 243.534135 
L 76.30312 235.623257 
L 74.605349 235.623257 
z
" clip-path="url(#p42f83dc0f4)" style="fill: #b66a4d"/>
   </g>
   <g id="patch_24">
    <path d="M 76.491761 243.534135 
L 78.189531 243.534135 
L 78.189531 242.807625 
L 76.491761 242.807625 
z
" clip-path="url(#p42f83dc0f4)" style="fill: #b66a4d"/>
   </g>
   <g id="patch_25">
    <path d="M 78.378172 243.534135 
L 80.075943 243.534135 
L 80.075943 243.534135 
L 78.378172 243.534135 
z
" clip-path="url(#p42f83dc0f4)" style="fill: #b66a4d"/>
   </g>
   <g id="patch_26">
    <path d="M 80.264584 243.534135 
L 81.962354 243.534135 
L 81.962354 243.534135 
L 80.264584 243.534135 
z
" clip-path="url(#p42f83dc0f4)" style="fill: #b66a4d"/>
   </g>
   <g id="patch_27">
    <path d="M 82.150995 243.534135 
L 83.848765 243.534135 
L 83.848765 243.534135 
L 82.150995 243.534135 
z
" clip-path="url(#p42f83dc0f4)" style="fill: #b66a4d"/>
   </g>
   <g id="patch_28">
    <path d="M 84.037406 243.534135 
L 85.735177 243.534135 
L 85.735177 243.534135 
L 84.037406 243.534135 
z
" clip-path="url(#p42f83dc0f4)" style="fill: #b66a4d"/>
   </g>
   <g id="patch_29">
    <path d="M 85.923818 243.534135 
L 87.621588 243.534135 
L 87.621588 243.534135 
L 85.923818 243.534135 
z
" clip-path="url(#p42f83dc0f4)" style="fill: #b66a4d"/>
   </g>
   <g id="patch_30">
    <path d="M 87.810229 243.534135 
L 89.507999 243.534135 
L 89.507999 243.534135 
L 87.810229 243.534135 
z
" clip-path="url(#p42f83dc0f4)" style="fill: #b66a4d"/>
   </g>
   <g id="patch_31">
    <path d="M 89.696641 243.534135 
L 91.394411 243.534135 
L 91.394411 243.534135 
L 89.696641 243.534135 
z
" clip-path="url(#p42f83dc0f4)" style="fill: #b66a4d"/>
   </g>
   <g id="patch_32">
    <path d="M 91.583052 243.534135 
L 93.280822 243.534135 
L 93.280822 243.534135 
L 91.583052 243.534135 
z
" clip-path="url(#p42f83dc0f4)" style="fill: #b66a4d"/>
   </g>
   <g id="patch_33">
    <path d="M 93.469463 243.534135 
L 95.167234 243.534135 
L 95.167234 243.534135 
L 93.469463 243.534135 
z
" clip-path="url(#p42f83dc0f4)" style="fill: #b66a4d"/>
   </g>
   <g id="patch_34">
    <path d="M 95.355875 243.534135 
L 97.053645 243.534135 
L 97.053645 243.534135 
L 95.355875 243.534135 
z
" clip-path="url(#p42f83dc0f4)" style="fill: #b66a4d"/>
   </g>
   <g id="patch_35">
    <path d="M 97.242286 243.534135 
L 98.940056 243.534135 
L 98.940056 243.534135 
L 97.242286 243.534135 
z
" clip-path="url(#p42f83dc0f4)" style="fill: #b66a4d"/>
   </g>
   <g id="patch_36">
    <path d="M 99.128698 243.534135 
L 100.826468 243.534135 
L 100.826468 243.534135 
L 99.128698 243.534135 
z
" clip-path="url(#p42f83dc0f4)" style="fill: #b66a4d"/>
   </g>
   <g id="patch_37">
    <path d="M 101.015109 243.534135 
L 102.712879 243.534135 
L 102.712879 243.534135 
L 101.015109 243.534135 
z
" clip-path="url(#p42f83dc0f4)" style="fill: #b66a4d"/>
   </g>
   <g id="patch_38">
    <path d="M 102.90152 243.534135 
L 104.599291 243.534135 
L 104.599291 243.534135 
L 102.90152 243.534135 
z
" clip-path="url(#p42f83dc0f4)" style="fill: #b66a4d"/>
   </g>
   <g id="patch_39">
    <path d="M 104.787932 243.534135 
L 106.485702 243.534135 
L 106.485702 243.534135 
L 104.787932 243.534135 
z
" clip-path="url(#p42f83dc0f4)" style="fill: #b66a4d"/>
   </g>
   <g id="patch_40">
    <path d="M 106.674343 243.534135 
L 108.372113 243.534135 
L 108.372113 243.534135 
L 106.674343 243.534135 
z
" clip-path="url(#p42f83dc0f4)" style="fill: #b66a4d"/>
   </g>
   <g id="patch_41">
    <path d="M 108.560754 243.534135 
L 110.258525 243.534135 
L 110.258525 243.534135 
L 108.560754 243.534135 
z
" clip-path="url(#p42f83dc0f4)" style="fill: #b66a4d"/>
   </g>
   <g id="patch_42">
    <path d="M 110.447166 243.534135 
L 112.144936 243.534135 
L 112.144936 243.534135 
L 110.447166 243.534135 
z
" clip-path="url(#p42f83dc0f4)" style="fill: #b66a4d"/>
   </g>
   <g id="patch_43">
    <path d="M 112.333577 243.534135 
L 114.031347 243.534135 
L 114.031347 243.534135 
L 112.333577 243.534135 
z
" clip-path="url(#p42f83dc0f4)" style="fill: #b66a4d"/>
   </g>
   <g id="patch_44">
    <path d="M 114.219989 243.534135 
L 115.917759 243.534135 
L 115.917759 243.534135 
L 114.219989 243.534135 
z
" clip-path="url(#p42f83dc0f4)" style="fill: #b66a4d"/>
   </g>
   <g id="patch_45">
    <path d="M 116.1064 243.534135 
L 117.80417 243.534135 
L 117.80417 243.534135 
L 116.1064 243.534135 
z
" clip-path="url(#p42f83dc0f4)" style="fill: #b66a4d"/>
   </g>
   <g id="patch_46">
    <path d="M 117.992811 243.534135 
L 119.690582 243.534135 
L 119.690582 243.534135 
L 117.992811 243.534135 
z
" clip-path="url(#p42f83dc0f4)" style="fill: #b66a4d"/>
   </g>
   <g id="patch_47">
    <path d="M 119.879223 243.534135 
L 121.576993 243.534135 
L 121.576993 243.534135 
L 119.879223 243.534135 
z
" clip-path="url(#p42f83dc0f4)" style="fill: #b66a4d"/>
   </g>
   <g id="patch_48">
    <path d="M 121.765634 243.534135 
L 123.463404 243.534135 
L 123.463404 243.534135 
L 121.765634 243.534135 
z
" clip-path="url(#p42f83dc0f4)" style="fill: #b66a4d"/>
   </g>
   <g id="patch_49">
    <path d="M 123.652046 243.534135 
L 125.349816 243.534135 
L 125.349816 243.534135 
L 123.652046 243.534135 
z
" clip-path="url(#p42f83dc0f4)" style="fill: #b66a4d"/>
   </g>
   <g id="patch_50">
    <path d="M 125.538457 243.534135 
L 127.236227 243.534135 
L 127.236227 243.534135 
L 125.538457 243.534135 
z
" clip-path="url(#p42f83dc0f4)" style="fill: #b66a4d"/>
   </g>
   <g id="patch_51">
    <path d="M 127.424868 243.534135 
L 129.122639 243.534135 
L 129.122639 243.534135 
L 127.424868 243.534135 
z
" clip-path="url(#p42f83dc0f4)" style="fill: #b66a4d"/>
   </g>
   <g id="patch_52">
    <path d="M 129.31128 243.534135 
L 131.00905 243.534135 
L 131.00905 243.534135 
L 129.31128 243.534135 
z
" clip-path="url(#p42f83dc0f4)" style="fill: #b66a4d"/>
   </g>
   <g id="patch_53">
    <path d="M 131.197691 243.534135 
L 132.895461 243.534135 
L 132.895461 243.534135 
L 131.197691 243.534135 
z
" clip-path="url(#p42f83dc0f4)" style="fill: #b66a4d"/>
   </g>
   <g id="patch_54">
    <path d="M 133.084102 243.534135 
L 134.781873 243.534135 
L 134.781873 243.534135 
L 133.084102 243.534135 
z
" clip-path="url(#p42f83dc0f4)" style="fill: #b66a4d"/>
   </g>
   <g id="patch_55">
    <path d="M 134.970514 243.534135 
L 136.668284 243.534135 
L 136.668284 243.534135 
L 134.970514 243.534135 
z
" clip-path="url(#p42f83dc0f4)" style="fill: #b66a4d"/>
   </g>
   <g id="patch_56">
    <path d="M 136.856925 243.534135 
L 138.554696 243.534135 
L 138.554696 243.534135 
L 136.856925 243.534135 
z
" clip-path="url(#p42f83dc0f4)" style="fill: #b66a4d"/>
   </g>
   <g id="patch_57">
    <path d="M 138.743337 243.534135 
L 140.441107 243.534135 
L 140.441107 243.534135 
L 138.743337 243.534135 
z
" clip-path="url(#p42f83dc0f4)" style="fill: #b66a4d"/>
   </g>
   <g id="patch_58">
    <path d="M 140.629748 243.534135 
L 142.327518 243.534135 
L 142.327518 243.534135 
L 140.629748 243.534135 
z
" clip-path="url(#p42f83dc0f4)" style="fill: #b66a4d"/>
   </g>
   <g id="patch_59">
    <path d="M 142.516159 243.534135 
L 144.21393 243.534135 
L 144.21393 243.534135 
L 142.516159 243.534135 
z
" clip-path="url(#p42f83dc0f4)" style="fill: #b66a4d"/>
   </g>
   <g id="patch_60">
    <path d="M 144.402571 243.534135 
L 146.100341 243.534135 
L 146.100341 243.534135 
L 144.402571 243.534135 
z
" clip-path="url(#p42f83dc0f4)" style="fill: #b66a4d"/>
   </g>
   <g id="patch_61">
    <path d="M 146.288982 243.534135 
L 147.986752 243.534135 
L 147.986752 243.534135 
L 146.288982 243.534135 
z
" clip-path="url(#p42f83dc0f4)" style="fill: #b66a4d"/>
   </g>
   <g id="patch_62">
    <path d="M 148.175394 243.534135 
L 149.873164 243.534135 
L 149.873164 243.534135 
L 148.175394 243.534135 
z
" clip-path="url(#p42f83dc0f4)" style="fill: #b66a4d"/>
   </g>
   <g id="patch_63">
    <path d="M 150.061805 243.534135 
L 151.759575 243.534135 
L 151.759575 243.534135 
L 150.061805 243.534135 
z
" clip-path="url(#p42f83dc0f4)" style="fill: #b66a4d"/>
   </g>
   <g id="patch_64">
    <path d="M 151.948216 243.534135 
L 153.645987 243.534135 
L 153.645987 243.534135 
L 151.948216 243.534135 
z
" clip-path="url(#p42f83dc0f4)" style="fill: #b66a4d"/>
   </g>
   <g id="patch_65">
    <path d="M 153.834628 243.534135 
L 155.532398 243.534135 
L 155.532398 243.534135 
L 153.834628 243.534135 
z
" clip-path="url(#p42f83dc0f4)" style="fill: #b66a4d"/>
   </g>
   <g id="patch_66">
    <path d="M 155.721039 243.534135 
L 157.418809 243.534135 
L 157.418809 243.534135 
L 155.721039 243.534135 
z
" clip-path="url(#p42f83dc0f4)" style="fill: #b66a4d"/>
   </g>
   <g id="patch_67">
    <path d="M 157.607451 243.534135 
L 159.305221 243.534135 
L 159.305221 243.534135 
L 157.607451 243.534135 
z
" clip-path="url(#p42f83dc0f4)" style="fill: #b66a4d"/>
   </g>
   <g id="patch_68">
    <path d="M 159.493862 243.534135 
L 161.191632 243.534135 
L 161.191632 243.534135 
L 159.493862 243.534135 
z
" clip-path="url(#p42f83dc0f4)" style="fill: #b66a4d"/>
   </g>
   <g id="patch_69">
    <path d="M 161.380273 243.534135 
L 163.078044 243.534135 
L 163.078044 243.534135 
L 161.380273 243.534135 
z
" clip-path="url(#p42f83dc0f4)" style="fill: #b66a4d"/>
   </g>
   <g id="patch_70">
    <path d="M 163.266685 243.534135 
L 164.964455 243.534135 
L 164.964455 243.534135 
L 163.266685 243.534135 
z
" clip-path="url(#p42f83dc0f4)" style="fill: #b66a4d"/>
   </g>
   <g id="patch_71">
    <path d="M 165.153096 243.534135 
L 166.850866 243.534135 
L 166.850866 243.534135 
L 165.153096 243.534135 
z
" clip-path="url(#p42f83dc0f4)" style="fill: #b66a4d"/>
   </g>
   <g id="patch_72">
    <path d="M 167.039507 243.534135 
L 168.737278 243.534135 
L 168.737278 243.534135 
L 167.039507 243.534135 
z
" clip-path="url(#p42f83dc0f4)" style="fill: #b66a4d"/>
   </g>
   <g id="patch_73">
    <path d="M 168.925919 243.534135 
L 170.623689 243.534135 
L 170.623689 243.534135 
L 168.925919 243.534135 
z
" clip-path="url(#p42f83dc0f4)" style="fill: #b66a4d"/>
   </g>
   <g id="patch_74">
    <path d="M 170.81233 243.534135 
L 172.5101 243.534135 
L 172.5101 243.534135 
L 170.81233 243.534135 
z
" clip-path="url(#p42f83dc0f4)" style="fill: #b66a4d"/>
   </g>
   <g id="patch_75">
    <path d="M 172.698742 243.534135 
L 174.396512 243.534135 
L 174.396512 243.534135 
L 172.698742 243.534135 
z
" clip-path="url(#p42f83dc0f4)" style="fill: #b66a4d"/>
   </g>
   <g id="patch_76">
    <path d="M 174.585153 243.534135 
L 176.282923 243.534135 
L 176.282923 243.534135 
L 174.585153 243.534135 
z
" clip-path="url(#p42f83dc0f4)" style="fill: #b66a4d"/>
   </g>
   <g id="patch_77">
    <path d="M 176.471564 243.534135 
L 178.169335 243.534135 
L 178.169335 243.534135 
L 176.471564 243.534135 
z
" clip-path="url(#p42f83dc0f4)" style="fill: #b66a4d"/>
   </g>
   <g id="patch_78">
    <path d="M 178.357976 243.534135 
L 180.055746 243.534135 
L 180.055746 243.534135 
L 178.357976 243.534135 
z
" clip-path="url(#p42f83dc0f4)" style="fill: #b66a4d"/>
   </g>
   <g id="patch_79">
    <path d="M 180.244387 243.534135 
L 181.942157 243.534135 
L 181.942157 243.534135 
L 180.244387 243.534135 
z
" clip-path="url(#p42f83dc0f4)" style="fill: #b66a4d"/>
   </g>
   <g id="patch_80">
    <path d="M 182.130799 243.534135 
L 183.828569 243.534135 
L 183.828569 243.534135 
L 182.130799 243.534135 
z
" clip-path="url(#p42f83dc0f4)" style="fill: #b66a4d"/>
   </g>
   <g id="patch_81">
    <path d="M 184.01721 243.534135 
L 185.71498 243.534135 
L 185.71498 243.534135 
L 184.01721 243.534135 
z
" clip-path="url(#p42f83dc0f4)" style="fill: #b66a4d"/>
   </g>
   <g id="patch_82">
    <path d="M 185.903621 243.534135 
L 187.601392 243.534135 
L 187.601392 243.534135 
L 185.903621 243.534135 
z
" clip-path="url(#p42f83dc0f4)" style="fill: #b66a4d"/>
   </g>
   <g id="patch_83">
    <path d="M 187.790033 243.534135 
L 189.487803 243.534135 
L 189.487803 243.534135 
L 187.790033 243.534135 
z
" clip-path="url(#p42f83dc0f4)" style="fill: #b66a4d"/>
   </g>
   <g id="patch_84">
    <path d="M 189.676444 243.534135 
L 191.374214 243.534135 
L 191.374214 243.534135 
L 189.676444 243.534135 
z
" clip-path="url(#p42f83dc0f4)" style="fill: #b66a4d"/>
   </g>
   <g id="patch_85">
    <path d="M 191.562855 243.534135 
L 193.260626 243.534135 
L 193.260626 243.534135 
L 191.562855 243.534135 
z
" clip-path="url(#p42f83dc0f4)" style="fill: #b66a4d"/>
   </g>
   <g id="patch_86">
    <path d="M 193.449267 243.534135 
L 195.147037 243.534135 
L 195.147037 243.534135 
L 193.449267 243.534135 
z
" clip-path="url(#p42f83dc0f4)" style="fill: #b66a4d"/>
   </g>
   <g id="patch_87">
    <path d="M 195.335678 243.534135 
L 197.033449 243.534135 
L 197.033449 243.534135 
L 195.335678 243.534135 
z
" clip-path="url(#p42f83dc0f4)" style="fill: #b66a4d"/>
   </g>
   <g id="patch_88">
    <path d="M 197.22209 243.534135 
L 198.91986 243.534135 
L 198.91986 243.534135 
L 197.22209 243.534135 
z
" clip-path="url(#p42f83dc0f4)" style="fill: #b66a4d"/>
   </g>
   <g id="patch_89">
    <path d="M 199.108501 243.534135 
L 200.806271 243.534135 
L 200.806271 243.534135 
L 199.108501 243.534135 
z
" clip-path="url(#p42f83dc0f4)" style="fill: #b66a4d"/>
   </g>
   <g id="patch_90">
    <path d="M 200.994912 243.534135 
L 202.692683 243.534135 
L 202.692683 243.534135 
L 200.994912 243.534135 
z
" clip-path="url(#p42f83dc0f4)" style="fill: #b66a4d"/>
   </g>
   <g id="patch_91">
    <path d="M 202.881324 243.534135 
L 204.579094 243.534135 
L 204.579094 243.534135 
L 202.881324 243.534135 
z
" clip-path="url(#p42f83dc0f4)" style="fill: #b66a4d"/>
   </g>
   <g id="patch_92">
    <path d="M 204.767735 243.534135 
L 206.465505 243.534135 
L 206.465505 243.534135 
L 204.767735 243.534135 
z
" clip-path="url(#p42f83dc0f4)" style="fill: #b66a4d"/>
   </g>
   <g id="patch_93">
    <path d="M 206.654147 243.534135 
L 208.351917 243.534135 
L 208.351917 243.534135 
L 206.654147 243.534135 
z
" clip-path="url(#p42f83dc0f4)" style="fill: #b66a4d"/>
   </g>
   <g id="patch_94">
    <path d="M 208.540558 243.534135 
L 210.238328 243.534135 
L 210.238328 243.534135 
L 208.540558 243.534135 
z
" clip-path="url(#p42f83dc0f4)" style="fill: #b66a4d"/>
   </g>
   <g id="patch_95">
    <path d="M 210.426969 243.534135 
L 212.12474 243.534135 
L 212.12474 243.534135 
L 210.426969 243.534135 
z
" clip-path="url(#p42f83dc0f4)" style="fill: #b66a4d"/>
   </g>
   <g id="patch_96">
    <path d="M 212.313381 243.534135 
L 214.011151 243.534135 
L 214.011151 243.534135 
L 212.313381 243.534135 
z
" clip-path="url(#p42f83dc0f4)" style="fill: #b66a4d"/>
   </g>
   <g id="patch_97">
    <path d="M 214.199792 243.534135 
L 215.897562 243.534135 
L 215.897562 243.534135 
L 214.199792 243.534135 
z
" clip-path="url(#p42f83dc0f4)" style="fill: #b66a4d"/>
   </g>
   <g id="patch_98">
    <path d="M 216.086204 243.534135 
L 217.783974 243.534135 
L 217.783974 243.534135 
L 216.086204 243.534135 
z
" clip-path="url(#p42f83dc0f4)" style="fill: #b66a4d"/>
   </g>
   <g id="patch_99">
    <path d="M 217.972615 243.534135 
L 219.670385 243.534135 
L 219.670385 243.534135 
L 217.972615 243.534135 
z
" clip-path="url(#p42f83dc0f4)" style="fill: #b66a4d"/>
   </g>
   <g id="patch_100">
    <path d="M 219.859026 243.534135 
L 221.556797 243.534135 
L 221.556797 243.534135 
L 219.859026 243.534135 
z
" clip-path="url(#p42f83dc0f4)" style="fill: #b66a4d"/>
   </g>
   <g id="patch_101">
    <path d="M 221.745438 243.534135 
L 223.443208 243.534135 
L 223.443208 243.534135 
L 221.745438 243.534135 
z
" clip-path="url(#p42f83dc0f4)" style="fill: #b66a4d"/>
   </g>
   <g id="patch_102">
    <path d="M 223.631849 243.534135 
L 225.329619 243.534135 
L 225.329619 243.534135 
L 223.631849 243.534135 
z
" clip-path="url(#p42f83dc0f4)" style="fill: #b66a4d"/>
   </g>
   <g id="matplotlib.axis_1">
    <g id="xtick_1">
     <g id="line2d_1">
      <path d="M 35.839595 243.534135 
L 35.839595 28.299453 
" clip-path="url(#p42f83dc0f4)" style="fill: none; stroke-dasharray: 0.5,0.825; stroke-dashoffset: 0; stroke: #b0b0b0; stroke-opacity: 0.55; stroke-width: 0.5"/>
     </g>
     <g id="line2d_2">
      <defs>
       <path id="m34df6a3ecb" d="M 0 0 
L 0 3.5 
" style="stroke: #000000; stroke-width: 0.8"/>
      </defs>
      <g>
       <use xlink:href="#m34df6a3ecb" x="35.839595" y="243.534135" style="stroke: #000000; stroke-width: 0.8"/>
      </g>
     </g>
     <g id="text_1">
      <text style="font-size: 8.5px; font-family: 'Times New Roman', 'Microsoft YaHei', 'DejaVu Sans'; text-anchor: middle" x="35.839595" y="256.427689" transform="rotate(-0 35.839595 256.427689)">0</text>
     </g>
    </g>
    <g id="xtick_2">
     <g id="line2d_3">
      <path d="M 73.567823 243.534135 
L 73.567823 28.299453 
" clip-path="url(#p42f83dc0f4)" style="fill: none; stroke-dasharray: 0.5,0.825; stroke-dashoffset: 0; stroke: #b0b0b0; stroke-opacity: 0.55; stroke-width: 0.5"/>
     </g>
     <g id="line2d_4">
      <g>
       <use xlink:href="#m34df6a3ecb" x="73.567823" y="243.534135" style="stroke: #000000; stroke-width: 0.8"/>
      </g>
     </g>
     <g id="text_2">
      <text style="font-size: 8.5px; font-family: 'Times New Roman', 'Microsoft YaHei', 'DejaVu Sans'; text-anchor: middle" x="73.567823" y="256.427689" transform="rotate(-0 73.567823 256.427689)">20</text>
     </g>
    </g>
    <g id="xtick_3">
     <g id="line2d_5">
      <path d="M 111.296051 243.534135 
L 111.296051 28.299453 
" clip-path="url(#p42f83dc0f4)" style="fill: none; stroke-dasharray: 0.5,0.825; stroke-dashoffset: 0; stroke: #b0b0b0; stroke-opacity: 0.55; stroke-width: 0.5"/>
     </g>
     <g id="line2d_6">
      <g>
       <use xlink:href="#m34df6a3ecb" x="111.296051" y="243.534135" style="stroke: #000000; stroke-width: 0.8"/>
      </g>
     </g>
     <g id="text_3">
      <text style="font-size: 8.5px; font-family: 'Times New Roman', 'Microsoft YaHei', 'DejaVu Sans'; text-anchor: middle" x="111.296051" y="256.427689" transform="rotate(-0 111.296051 256.427689)">40</text>
     </g>
    </g>
    <g id="xtick_4">
     <g id="line2d_7">
      <path d="M 149.024279 243.534135 
L 149.024279 28.299453 
" clip-path="url(#p42f83dc0f4)" style="fill: none; stroke-dasharray: 0.5,0.825; stroke-dashoffset: 0; stroke: #b0b0b0; stroke-opacity: 0.55; stroke-width: 0.5"/>
     </g>
     <g id="line2d_8">
      <g>
       <use xlink:href="#m34df6a3ecb" x="149.024279" y="243.534135" style="stroke: #000000; stroke-width: 0.8"/>
      </g>
     </g>
     <g id="text_4">
      <text style="font-size: 8.5px; font-family: 'Times New Roman', 'Microsoft YaHei', 'DejaVu Sans'; text-anchor: middle" x="149.024279" y="256.427689" transform="rotate(-0 149.024279 256.427689)">60</text>
     </g>
    </g>
    <g id="xtick_5">
     <g id="line2d_9">
      <path d="M 186.752506 243.534135 
L 186.752506 28.299453 
" clip-path="url(#p42f83dc0f4)" style="fill: none; stroke-dasharray: 0.5,0.825; stroke-dashoffset: 0; stroke: #b0b0b0; stroke-opacity: 0.55; stroke-width: 0.5"/>
     </g>
     <g id="line2d_10">
      <g>
       <use xlink:href="#m34df6a3ecb" x="186.752506" y="243.534135" style="stroke: #000000; stroke-width: 0.8"/>
      </g>
     </g>
     <g id="text_5">
      <text style="font-size: 8.5px; font-family: 'Times New Roman', 'Microsoft YaHei', 'DejaVu Sans'; text-anchor: middle" x="186.752506" y="256.427689" transform="rotate(-0 186.752506 256.427689)">80</text>
     </g>
    </g>
    <g id="xtick_6">
     <g id="line2d_11">
      <path d="M 224.480734 243.534135 
L 224.480734 28.299453 
" clip-path="url(#p42f83dc0f4)" style="fill: none; stroke-dasharray: 0.5,0.825; stroke-dashoffset: 0; stroke: #b0b0b0; stroke-opacity: 0.55; stroke-width: 0.5"/>
     </g>
     <g id="line2d_12">
      <g>
       <use xlink:href="#m34df6a3ecb" x="224.480734" y="243.534135" style="stroke: #000000; stroke-width: 0.8"/>
      </g>
     </g>
     <g id="text_6">
      <text style="font-size: 8.5px; font-family: 'Times New Roman', 'Microsoft YaHei', 'DejaVu Sans'; text-anchor: middle" x="224.480734" y="256.427689" transform="rotate(-0 224.480734 256.427689)">100</text>
     </g>
    </g>
    <g id="text_7">
     <text style="font-size: 9.5px; font-family: 'Times New Roman', 'Microsoft YaHei', 'DejaVu Sans'; text-anchor: middle" x="131.103371" y="270.264428" transform="rotate(-0 131.103371 270.264428)">用例排序（Spill降序）</text>
    </g>
   </g>
   <g id="matplotlib.axis_2">
    <g id="ytick_1">
     <g id="line2d_13">
      <path d="M 35.839595 243.534135 
L 226.367146 243.534135 
" clip-path="url(#p42f83dc0f4)" style="fill: none; stroke-dasharray: 0.5,0.825; stroke-dashoffset: 0; stroke: #b0b0b0; stroke-opacity: 0.55; stroke-width: 0.5"/>
     </g>
     <g id="line2d_14">
      <defs>
       <path id="mc77069acb6" d="M 0 0 
L -3.5 0 
" style="stroke: #000000; stroke-width: 0.8"/>
      </defs>
      <g>
       <use xlink:href="#mc77069acb6" x="35.839595" y="243.534135" style="stroke: #000000; stroke-width: 0.8"/>
      </g>
     </g>
     <g id="text_8">
      <!-- $\mathdefault{0}$ -->
      <g transform="translate(24.589595 246.480912)">
       <text>
        <tspan x="0" y="-0.25" style="font-size: 8.5px; font-family: 'Times New Roman'">0</tspan>
       </text>
      </g>
     </g>
    </g>
    <g id="ytick_2">
     <g id="line2d_15">
      <path d="M 35.839595 202.203833 
L 226.367146 202.203833 
" clip-path="url(#p42f83dc0f4)" style="fill: none; stroke-dasharray: 0.5,0.825; stroke-dashoffset: 0; stroke: #b0b0b0; stroke-opacity: 0.55; stroke-width: 0.5"/>
     </g>
     <g id="line2d_16">
      <g>
       <use xlink:href="#mc77069acb6" x="35.839595" y="202.203833" style="stroke: #000000; stroke-width: 0.8"/>
      </g>
     </g>
     <g id="text_9">
      <!-- $\mathdefault{10^{0}}$ -->
      <g transform="translate(17.024595 205.986333)">
       <text>
        <tspan x="0" y="-0.4645" style="font-size: 8.5px; font-family: 'Times New Roman'">1</tspan>
        <tspan x="4.25" y="-0.4645" style="font-size: 8.5px; font-family: 'Times New Roman'">0</tspan>
        <tspan x="8.581348" y="-3.975" style="font-size: 5.95px; font-family: 'Times New Roman'">0</tspan>
       </text>
      </g>
     </g>
    </g>
    <g id="ytick_3">
     <g id="line2d_17">
      <path d="M 35.839595 108.873976 
L 226.367146 108.873976 
" clip-path="url(#p42f83dc0f4)" style="fill: none; stroke-dasharray: 0.5,0.825; stroke-dashoffset: 0; stroke: #b0b0b0; stroke-opacity: 0.55; stroke-width: 0.5"/>
     </g>
     <g id="line2d_18">
      <g>
       <use xlink:href="#mc77069acb6" x="35.839595" y="108.873976" style="stroke: #000000; stroke-width: 0.8"/>
      </g>
     </g>
     <g id="text_10">
      <!-- $\mathdefault{10^{1}}$ -->
      <g transform="translate(17.024595 112.656476)">
       <text>
        <tspan x="0" y="-0.4645" style="font-size: 8.5px; font-family: 'Times New Roman'">1</tspan>
        <tspan x="4.25" y="-0.4645" style="font-size: 8.5px; font-family: 'Times New Roman'">0</tspan>
        <tspan x="8.581348" y="-3.975" style="font-size: 5.95px; font-family: 'Times New Roman'">1</tspan>
       </text>
      </g>
     </g>
    </g>
    <g id="ytick_4">
     <g id="line2d_19">
      <path d="M 35.839595 34.479432 
L 226.367146 34.479432 
" clip-path="url(#p42f83dc0f4)" style="fill: none; stroke-dasharray: 0.5,0.825; stroke-dashoffset: 0; stroke: #b0b0b0; stroke-opacity: 0.55; stroke-width: 0.5"/>
     </g>
     <g id="line2d_20">
      <g>
       <use xlink:href="#mc77069acb6" x="35.839595" y="34.479432" style="stroke: #000000; stroke-width: 0.8"/>
      </g>
     </g>
     <g id="text_11">
      <!-- $\mathdefault{10^{2}}$ -->
      <g transform="translate(17.024595 38.261932)">
       <text>
        <tspan x="0" y="-0.4645" style="font-size: 8.5px; font-family: 'Times New Roman'">1</tspan>
        <tspan x="4.25" y="-0.4645" style="font-size: 8.5px; font-family: 'Times New Roman'">0</tspan>
        <tspan x="8.581348" y="-3.975" style="font-size: 5.95px; font-family: 'Times New Roman'">2</tspan>
       </text>
      </g>
     </g>
    </g>
    <g id="text_12">
     <text style="font-size: 9.5px; font-family: 'Times New Roman', 'Microsoft YaHei', 'DejaVu Sans'; text-anchor: middle" x="10.974303" y="135.916794" transform="rotate(-90 10.974303 135.916794)">Spill新增COPY / MiB</text>
    </g>
   </g>
   <g id="patch_103">
    <path d="M 35.839595 243.534135 
L 35.839595 28.299453 
" style="fill: none; stroke: #000000; stroke-width: 0.8; stroke-linejoin: miter; stroke-linecap: square"/>
   </g>
   <g id="patch_104">
    <path d="M 35.839595 243.534135 
L 226.367146 243.534135 
" style="fill: none; stroke: #000000; stroke-width: 0.8; stroke-linejoin: miter; stroke-linecap: square"/>
   </g>
  </g>
  <g id="axes_2">
   <g id="patch_105">
    <path d="M 270.648391 243.534135 
L 461.175941 243.534135 
L 461.175941 28.299453 
L 270.648391 28.299453 
z
" style="fill: #ffffff"/>
   </g>
   <g id="matplotlib.axis_3">
    <g id="xtick_7">
     <g id="line2d_21">
      <path d="M 270.648391 243.534135 
L 270.648391 28.299453 
" clip-path="url(#pb0b8576f2c)" style="fill: none; stroke-dasharray: 0.5,0.825; stroke-dashoffset: 0; stroke: #b0b0b0; stroke-opacity: 0.55; stroke-width: 0.5"/>
     </g>
     <g id="line2d_22">
      <g>
       <use xlink:href="#m34df6a3ecb" x="270.648391" y="243.534135" style="stroke: #000000; stroke-width: 0.8"/>
      </g>
     </g>
     <g id="text_13">
      <text style="font-size: 8.5px; font-family: 'Times New Roman', 'Microsoft YaHei', 'DejaVu Sans'; text-anchor: middle" x="270.648391" y="256.427689" transform="rotate(-0 270.648391 256.427689)">0</text>
     </g>
    </g>
    <g id="xtick_8">
     <g id="line2d_23">
      <path d="M 308.753901 243.534135 
L 308.753901 28.299453 
" clip-path="url(#pb0b8576f2c)" style="fill: none; stroke-dasharray: 0.5,0.825; stroke-dashoffset: 0; stroke: #b0b0b0; stroke-opacity: 0.55; stroke-width: 0.5"/>
     </g>
     <g id="line2d_24">
      <g>
       <use xlink:href="#m34df6a3ecb" x="308.753901" y="243.534135" style="stroke: #000000; stroke-width: 0.8"/>
      </g>
     </g>
     <g id="text_14">
      <text style="font-size: 8.5px; font-family: 'Times New Roman', 'Microsoft YaHei', 'DejaVu Sans'; text-anchor: middle" x="308.753901" y="256.427689" transform="rotate(-0 308.753901 256.427689)">20</text>
     </g>
    </g>
    <g id="xtick_9">
     <g id="line2d_25">
      <path d="M 346.859411 243.534135 
L 346.859411 28.299453 
" clip-path="url(#pb0b8576f2c)" style="fill: none; stroke-dasharray: 0.5,0.825; stroke-dashoffset: 0; stroke: #b0b0b0; stroke-opacity: 0.55; stroke-width: 0.5"/>
     </g>
     <g id="line2d_26">
      <g>
       <use xlink:href="#m34df6a3ecb" x="346.859411" y="243.534135" style="stroke: #000000; stroke-width: 0.8"/>
      </g>
     </g>
     <g id="text_15">
      <text style="font-size: 8.5px; font-family: 'Times New Roman', 'Microsoft YaHei', 'DejaVu Sans'; text-anchor: middle" x="346.859411" y="256.427689" transform="rotate(-0 346.859411 256.427689)">40</text>
     </g>
    </g>
    <g id="xtick_10">
     <g id="line2d_27">
      <path d="M 384.964921 243.534135 
L 384.964921 28.299453 
" clip-path="url(#pb0b8576f2c)" style="fill: none; stroke-dasharray: 0.5,0.825; stroke-dashoffset: 0; stroke: #b0b0b0; stroke-opacity: 0.55; stroke-width: 0.5"/>
     </g>
     <g id="line2d_28">
      <g>
       <use xlink:href="#m34df6a3ecb" x="384.964921" y="243.534135" style="stroke: #000000; stroke-width: 0.8"/>
      </g>
     </g>
     <g id="text_16">
      <text style="font-size: 8.5px; font-family: 'Times New Roman', 'Microsoft YaHei', 'DejaVu Sans'; text-anchor: middle" x="384.964921" y="256.427689" transform="rotate(-0 384.964921 256.427689)">60</text>
     </g>
    </g>
    <g id="xtick_11">
     <g id="line2d_29">
      <path d="M 423.070431 243.534135 
L 423.070431 28.299453 
" clip-path="url(#pb0b8576f2c)" style="fill: none; stroke-dasharray: 0.5,0.825; stroke-dashoffset: 0; stroke: #b0b0b0; stroke-opacity: 0.55; stroke-width: 0.5"/>
     </g>
     <g id="line2d_30">
      <g>
       <use xlink:href="#m34df6a3ecb" x="423.070431" y="243.534135" style="stroke: #000000; stroke-width: 0.8"/>
      </g>
     </g>
     <g id="text_17">
      <text style="font-size: 8.5px; font-family: 'Times New Roman', 'Microsoft YaHei', 'DejaVu Sans'; text-anchor: middle" x="423.070431" y="256.427689" transform="rotate(-0 423.070431 256.427689)">80</text>
     </g>
    </g>
    <g id="xtick_12">
     <g id="line2d_31">
      <path d="M 461.175941 243.534135 
L 461.175941 28.299453 
" clip-path="url(#pb0b8576f2c)" style="fill: none; stroke-dasharray: 0.5,0.825; stroke-dashoffset: 0; stroke: #b0b0b0; stroke-opacity: 0.55; stroke-width: 0.5"/>
     </g>
     <g id="line2d_32">
      <g>
       <use xlink:href="#m34df6a3ecb" x="461.175941" y="243.534135" style="stroke: #000000; stroke-width: 0.8"/>
      </g>
     </g>
     <g id="text_18">
      <text style="font-size: 8.5px; font-family: 'Times New Roman', 'Microsoft YaHei', 'DejaVu Sans'; text-anchor: middle" x="461.175941" y="256.427689" transform="rotate(-0 461.175941 256.427689)">100</text>
     </g>
    </g>
    <g id="text_19">
     <text style="font-size: 9.5px; font-family: 'Times New Roman', 'Microsoft YaHei', 'DejaVu Sans'; text-anchor: middle" x="365.912166" y="270.162006" transform="rotate(-0 365.912166 270.162006)">累计用例数</text>
    </g>
   </g>
   <g id="matplotlib.axis_4">
    <g id="ytick_5">
     <g id="line2d_33">
      <path d="M 270.648391 243.534135 
L 461.175941 243.534135 
" clip-path="url(#pb0b8576f2c)" style="fill: none; stroke-dasharray: 0.5,0.825; stroke-dashoffset: 0; stroke: #b0b0b0; stroke-opacity: 0.55; stroke-width: 0.5"/>
     </g>
     <g id="line2d_34">
      <g>
       <use xlink:href="#mc77069acb6" x="270.648391" y="243.534135" style="stroke: #000000; stroke-width: 0.8"/>
      </g>
     </g>
     <g id="text_20">
      <text style="font-size: 8.5px; font-family: 'Times New Roman', 'Microsoft YaHei', 'DejaVu Sans'; text-anchor: end" x="263.648391" y="246.480912" transform="rotate(-0 263.648391 246.480912)">0</text>
     </g>
    </g>
    <g id="ytick_6">
     <g id="line2d_35">
      <path d="M 270.648391 201.740993 
L 461.175941 201.740993 
" clip-path="url(#pb0b8576f2c)" style="fill: none; stroke-dasharray: 0.5,0.825; stroke-dashoffset: 0; stroke: #b0b0b0; stroke-opacity: 0.55; stroke-width: 0.5"/>
     </g>
     <g id="line2d_36">
      <g>
       <use xlink:href="#mc77069acb6" x="270.648391" y="201.740993" style="stroke: #000000; stroke-width: 0.8"/>
      </g>
     </g>
     <g id="text_21">
      <text style="font-size: 8.5px; font-family: 'Times New Roman', 'Microsoft YaHei', 'DejaVu Sans'; text-anchor: end" x="263.648391" y="204.68777" transform="rotate(-0 263.648391 204.68777)">20</text>
     </g>
    </g>
    <g id="ytick_7">
     <g id="line2d_37">
      <path d="M 270.648391 159.94785 
L 461.175941 159.94785 
" clip-path="url(#pb0b8576f2c)" style="fill: none; stroke-dasharray: 0.5,0.825; stroke-dashoffset: 0; stroke: #b0b0b0; stroke-opacity: 0.55; stroke-width: 0.5"/>
     </g>
     <g id="line2d_38">
      <g>
       <use xlink:href="#mc77069acb6" x="270.648391" y="159.94785" style="stroke: #000000; stroke-width: 0.8"/>
      </g>
     </g>
     <g id="text_22">
      <text style="font-size: 8.5px; font-family: 'Times New Roman', 'Microsoft YaHei', 'DejaVu Sans'; text-anchor: end" x="263.648391" y="162.894628" transform="rotate(-0 263.648391 162.894628)">40</text>
     </g>
    </g>
    <g id="ytick_8">
     <g id="line2d_39">
      <path d="M 270.648391 118.154708 
L 461.175941 118.154708 
" clip-path="url(#pb0b8576f2c)" style="fill: none; stroke-dasharray: 0.5,0.825; stroke-dashoffset: 0; stroke: #b0b0b0; stroke-opacity: 0.55; stroke-width: 0.5"/>
     </g>
     <g id="line2d_40">
      <g>
       <use xlink:href="#mc77069acb6" x="270.648391" y="118.154708" style="stroke: #000000; stroke-width: 0.8"/>
      </g>
     </g>
     <g id="text_23">
      <text style="font-size: 8.5px; font-family: 'Times New Roman', 'Microsoft YaHei', 'DejaVu Sans'; text-anchor: end" x="263.648391" y="121.101486" transform="rotate(-0 263.648391 121.101486)">60</text>
     </g>
    </g>
    <g id="ytick_9">
     <g id="line2d_41">
      <path d="M 270.648391 76.361566 
L 461.175941 76.361566 
" clip-path="url(#pb0b8576f2c)" style="fill: none; stroke-dasharray: 0.5,0.825; stroke-dashoffset: 0; stroke: #b0b0b0; stroke-opacity: 0.55; stroke-width: 0.5"/>
     </g>
     <g id="line2d_42">
      <g>
       <use xlink:href="#mc77069acb6" x="270.648391" y="76.361566" style="stroke: #000000; stroke-width: 0.8"/>
      </g>
     </g>
     <g id="text_24">
      <text style="font-size: 8.5px; font-family: 'Times New Roman', 'Microsoft YaHei', 'DejaVu Sans'; text-anchor: end" x="263.648391" y="79.308343" transform="rotate(-0 263.648391 79.308343)">80</text>
     </g>
    </g>
    <g id="ytick_10">
     <g id="line2d_43">
      <path d="M 270.648391 34.568424 
L 461.175941 34.568424 
" clip-path="url(#pb0b8576f2c)" style="fill: none; stroke-dasharray: 0.5,0.825; stroke-dashoffset: 0; stroke: #b0b0b0; stroke-opacity: 0.55; stroke-width: 0.5"/>
     </g>
     <g id="line2d_44">
      <g>
       <use xlink:href="#mc77069acb6" x="270.648391" y="34.568424" style="stroke: #000000; stroke-width: 0.8"/>
      </g>
     </g>
     <g id="text_25">
      <text style="font-size: 8.5px; font-family: 'Times New Roman', 'Microsoft YaHei', 'DejaVu Sans'; text-anchor: end" x="263.648391" y="37.515201" transform="rotate(-0 263.648391 37.515201)">100</text>
     </g>
    </g>
    <g id="text_26">
     <text style="font-size: 9.5px; font-family: 'Times New Roman', 'Microsoft YaHei', 'DejaVu Sans'; text-anchor: middle" x="244.848098" y="135.916794" transform="rotate(-90 244.848098 135.916794)">累计Spill字节占比 / %</text>
    </g>
   </g>
   <g id="line2d_45">
    <path d="M 270.648391 243.534135 
L 272.553666 175.453519 
L 274.458942 141.94786 
L 276.364217 124.085766 
L 278.269493 107.435493 
L 280.174768 94.25792 
L 282.080044 82.851578 
L 283.985319 72.680433 
L 285.890595 62.575647 
L 287.79587 53.825204 
L 289.701146 47.448632 
L 291.606421 44.302575 
L 293.511697 41.345794 
L 295.416972 39.864764 
L 297.322248 38.531159 
L 299.227523 37.526713 
L 301.132799 36.739445 
L 303.038074 36.087912 
L 304.94335 35.529133 
L 306.848626 35.004287 
L 308.753901 34.729799 
L 310.659177 34.581998 
L 312.564452 34.568424 
L 314.469728 34.568424 
L 316.375003 34.568424 
L 318.280279 34.568424 
L 320.185554 34.568424 
L 322.09083 34.568424 
L 323.996105 34.568424 
L 325.901381 34.568424 
L 327.806656 34.568424 
L 329.711932 34.568424 
L 331.617207 34.568424 
L 333.522483 34.568424 
L 335.427758 34.568424 
L 337.333034 34.568424 
L 339.238309 34.568424 
L 341.143585 34.568424 
L 343.04886 34.568424 
L 344.954136 34.568424 
L 346.859411 34.568424 
L 348.764687 34.568424 
L 350.669962 34.568424 
L 352.575238 34.568424 
L 354.480513 34.568424 
L 356.385789 34.568424 
L 358.291064 34.568424 
L 360.19634 34.568424 
L 362.101615 34.568424 
L 364.006891 34.568424 
L 365.912166 34.568424 
L 367.817442 34.568424 
L 369.722717 34.568424 
L 371.627993 34.568424 
L 373.533268 34.568424 
L 375.438544 34.568424 
L 377.343819 34.568424 
L 379.249095 34.568424 
L 381.15437 34.568424 
L 383.059646 34.568424 
L 384.964921 34.568424 
L 386.870197 34.568424 
L 388.775472 34.568424 
L 390.680748 34.568424 
L 392.586023 34.568424 
L 394.491299 34.568424 
L 396.396574 34.568424 
L 398.30185 34.568424 
L 400.207125 34.568424 
L 402.112401 34.568424 
L 404.017676 34.568424 
L 405.922952 34.568424 
L 407.828227 34.568424 
L 409.733503 34.568424 
L 411.638778 34.568424 
L 413.544054 34.568424 
L 415.449329 34.568424 
L 417.354605 34.568424 
L 419.25988 34.568424 
L 421.165156 34.568424 
L 423.070431 34.568424 
L 424.975707 34.568424 
L 426.880982 34.568424 
L 428.786258 34.568424 
L 430.691533 34.568424 
L 432.596809 34.568424 
L 434.502084 34.568424 
L 436.40736 34.568424 
L 438.312635 34.568424 
L 440.217911 34.568424 
L 442.123186 34.568424 
L 444.028462 34.568424 
L 445.933737 34.568424 
L 447.839013 34.568424 
L 449.744288 34.568424 
L 451.649564 34.568424 
L 453.554839 34.568424 
L 455.460115 34.568424 
L 457.36539 34.568424 
L 459.270666 34.568424 
L 461.175941 34.568424 
" clip-path="url(#pb0b8576f2c)" style="fill: none; stroke: #b66a4d; stroke-width: 1.4; stroke-linecap: square"/>
   </g>
   <g id="line2d_46">
    <path d="M 270.648391 243.534135 
L 461.175941 34.568424 
" clip-path="url(#pb0b8576f2c)" style="fill: none; stroke-dasharray: 1.4,2.31; stroke-dashoffset: 0; stroke: #999999; stroke-width: 1.4"/>
   </g>
   <g id="patch_106">
    <path d="M 270.648391 243.534135 
L 270.648391 28.299453 
" style="fill: none; stroke: #000000; stroke-width: 0.8; stroke-linejoin: miter; stroke-linecap: square"/>
   </g>
   <g id="patch_107">
    <path d="M 270.648391 243.534135 
L 461.175941 243.534135 
" style="fill: none; stroke: #000000; stroke-width: 0.8; stroke-linejoin: miter; stroke-linecap: square"/>
   </g>
   <g id="legend_1">
    <g id="line2d_47">
     <path d="M 380.665941 231.367826 
L 388.965941 231.367826 
L 397.265941 231.367826 
" style="fill: none; stroke-dasharray: 1.4,2.31; stroke-dashoffset: 0; stroke: #999999; stroke-width: 1.4"/>
    </g>
    <g id="text_27">
     <text style="font-size: 8.3px; font-family: 'Times New Roman', 'Microsoft YaHei', 'DejaVu Sans'; text-anchor: start" x="403.905941" y="234.272826" transform="rotate(-0 403.905941 234.272826)">等量贡献参考</text>
    </g>
   </g>
  </g>
  <g id="text_28">
   <text style="font-size: 10.5px; font-family: 'Times New Roman', 'Microsoft YaHei', 'DejaVu Sans'; text-anchor: middle" x="235.275591" y="11.820987" transform="rotate(-0 235.275591 11.820987)">F18  五核B的Spill集中度</text>
  </g>
  <g id="text_29">
   <text style="font-size: 8.2px; font-family: 'Times New Roman', 'Microsoft YaHei', 'DejaVu Sans'; text-anchor: middle; fill: #404040" x="235.275591" y="290.510588" transform="rotate(-0 235.275591 290.510588)">全部100图按Spill降序排列；零Spill也在分母中。</text>
  </g>
 </g>
 <defs>
  <clipPath id="p42f83dc0f4">
   <rect x="35.839595" y="28.299453" width="190.52755" height="215.234682"/>
  </clipPath>
  <clipPath id="pb0b8576f2c">
   <rect x="270.648391" y="28.299453" width="190.52755" height="215.234682"/>
  </clipPath>
 </defs>
</svg>
